<svg width="19" height="19" viewBox="0 0 19 19" fill="none" xmlns="http://www.w3.org/2000/svg">
<path d="M14.1435 10.9081C13.9462 11.0993 13.8556 11.3758 13.9006 11.6469L14.5776 15.3941C14.6347 15.7117 14.5007 16.0331 14.2349 16.2166C13.9744 16.407 13.6279 16.4299 13.3438 16.2775L9.97065 14.5182C9.85336 14.4557 9.72313 14.4222 9.58984 14.4184H9.38345C9.31186 14.4291 9.24179 14.4519 9.17781 14.487L5.80388 16.2547C5.63709 16.3385 5.44821 16.3682 5.26314 16.3385C4.81227 16.2532 4.51143 15.8236 4.58531 15.3705L5.26314 11.6233C5.30808 11.3499 5.21745 11.0719 5.02019 10.8777L2.27002 8.21201C2.04001 7.98886 1.96004 7.65375 2.06514 7.35138C2.1672 7.04978 2.42767 6.82968 2.74222 6.78017L6.52741 6.23105C6.8153 6.20134 7.06816 6.02617 7.19763 5.76722L8.86555 2.34756C8.90516 2.2714 8.95619 2.20133 9.01788 2.14192L9.08642 2.08861C9.12222 2.04901 9.16334 2.01626 9.20904 1.9896L9.29206 1.95914L9.42153 1.90582H9.74217C10.0285 1.93553 10.2806 2.10689 10.4124 2.36279L12.1024 5.76722C12.2242 6.01627 12.4611 6.18916 12.7345 6.23105L16.5197 6.78017C16.8396 6.82587 17.1069 7.04674 17.2128 7.35138C17.3126 7.65679 17.2265 7.9919 16.9919 8.21201L14.1435 10.9081Z" fill="#F6B76F"/>
</svg>
